<?xml version="1.0" encoding="UTF-8" standalone="no"?><!DOCTYPE svg PUBLIC "-//W3C//DTD SVG 1.1//EN" "http://www.w3.org/Graphics/SVG/1.1/DTD/svg11.dtd"><svg width="100%" height="100%" viewBox="0 0 1084 168" version="1.1" xmlns="http://www.w3.org/2000/svg" xmlns:xlink="http://www.w3.org/1999/xlink" xml:space="preserve" xmlns:serif="http://www.serif.com/" style="fill-rule:evenodd;clip-rule:evenodd;stroke-linejoin:round;stroke-miterlimit:2;"><path d="M171.752,91.178c0,-15.71 0.03,-31.42 -0.04,-47.13c0,-1.8 0.43,-2.4 2.33,-2.38c12.26,0.09 24.52,-0.17 36.77,0.1c13.85,0.3 25.1,5.77 32.46,17.93c3.37,5.57 5.16,11.7 6.3,18.11c1.19,6.67 1.18,13.38 0.66,20.02c-0.97,12.35 -4.28,23.93 -13.57,32.93c-4.89,4.74 -10.73,7.82 -17.47,8.8c-4.25,0.62 -8.59,0.91 -12.89,0.96c-10.67,0.13 -21.34,0.04 -32.02,0.04c-1.7,-0 -2.55,-0.874 -2.55,-2.62l0,-46.77l0.02,0.01Zm19.24,0.01c0,9.68 0.04,19.36 -0.03,29.03c-0.01,1.77 0.61,2.32 2.33,2.3c5.3,-0.08 10.61,-0 15.91,-0.04c6.32,-0.06 11.58,-2.45 15.62,-7.36c3.9,-4.74 5.38,-10.43 6.07,-16.32c0.73,-6.31 0.52,-12.66 -0.85,-18.88c-0.67,-3.04 -1.7,-6.11 -3.17,-8.85c-4.18,-7.78 -11.23,-10.91 -19.75,-11.17c-4.63,-0.14 -9.27,0.04 -13.9,-0.07c-1.8,-0.04 -2.27,0.6 -2.26,2.32c0.07,9.68 0.03,19.36 0.03,29.03l0,0.01Z" style="fill:#284659;fill-rule:nonzero;"/><path d="M645.372,71.118c-1.89,-0 -3.78,0.02 -5.67,-0c-3.83,-0.03 -3.5,0.49 -4.21,-3.51c-0.7,-3.98 -2.71,-7.18 -6.3,-9.14c-1.57,-0.86 -3.36,-1.5 -5.13,-1.82c-5.38,-0.97 -10.7,-1.07 -15.39,2.42c-3.83,2.85 -5.2,8.37 -3.15,12.63c1.42,2.93 4.25,4.17 7.08,5.08c8.1,2.58 16.3,4.84 24.39,7.46c7.89,2.56 14.47,6.93 18.22,14.66c1.78,3.67 2.37,7.62 2.44,11.68c0.1,6.47 -1.13,12.57 -4.78,18.01c-4.05,6.05 -9.74,9.84 -16.65,12.07c-5.42,1.75 -10.97,2.37 -16.56,2.21c-9.9,-0.28 -19.14,-2.69 -26.72,-9.57c-4.1,-3.73 -7.01,-8.26 -8.41,-13.59c-0.81,-3.09 -1.07,-6.33 -1.54,-9.51c-0.21,-1.45 0.41,-2.11 1.95,-2.09c5,0.05 10.01,0.04 15.01,-0c1.28,-0.01 1.8,0.37 1.87,1.76c0.46,9.56 7.2,15.11 15.65,16.07c5.02,0.57 10,0.4 14.7,-1.78c4.01,-1.86 6.45,-4.99 6.85,-9.41c0.36,-4.01 -1.34,-7.18 -4.62,-9.55c-3.99,-2.88 -8.67,-4.01 -13.25,-5.45c-6.83,-2.16 -13.81,-3.97 -20.37,-6.77c-7.23,-3.09 -12.67,-8.56 -14.1,-16.58c-2.4,-13.53 1.03,-25.64 15.13,-32.9c6.51,-3.35 13.47,-4.21 20.73,-3.82c6.89,0.37 13.35,1.93 19.2,5.63c6.67,4.22 10.77,10.23 12.12,18.03c0.35,2.03 0.56,4.08 0.85,6.12c0.19,1.32 -0.42,1.71 -1.66,1.68c-2.56,-0.06 -5.12,-0.02 -7.69,-0.02l0.01,-0Z" style="fill:#284659;fill-rule:nonzero;"/><path d="M993.322,128.948c-2.53,2.21 -4.69,4.68 -7.36,6.32c-5.21,3.19 -10.96,3.91 -17.05,2.82c-6.52,-1.16 -11.74,-4.19 -15.59,-9.53c-2.76,-3.83 -4.55,-8.11 -5.5,-12.76c-1.16,-5.68 -1.92,-11.37 -1.34,-17.19c0.74,-7.41 2.52,-14.45 6.93,-20.62c5.47,-7.66 12.96,-11.01 22.31,-10.64c7.33,0.3 12.94,3.37 16.76,9.64c0.09,0.14 0.27,0.22 0.74,0.57c0.21,-0.79 0.49,-1.41 0.52,-2.04c0.07,-1.58 0.05,-3.17 0.03,-4.75c-0.01,-1.06 0.51,-1.6 1.55,-1.6c4.57,-0 9.15,-0 13.72,0.02c1.02,-0 1.57,0.55 1.5,1.63c-0.02,0.3 0,0.61 0,0.91c0,21.99 0.12,43.97 -0.07,65.96c-0.06,7.26 -1.75,14.21 -6.63,20.01c-3.19,3.79 -7.22,6.24 -11.87,7.79c-6.66,2.22 -13.55,2.64 -20.42,1.71c-8.44,-1.14 -15.88,-4.47 -20.22,-12.34c-1.31,-2.38 -1.79,-5.23 -2.53,-7.89c-0.35,-1.28 0.32,-1.89 1.69,-1.88c4.64,0.04 9.27,0.03 13.91,-0c1.15,-0 1.69,0.42 2.06,1.56c1.52,4.58 5.91,7.68 10.76,7.99c4.98,0.32 9.46,-0.55 12.83,-4.61c2.62,-3.15 3.49,-6.89 3.66,-10.84c0.12,-2.92 0.06,-5.85 0.02,-8.77c0,-0.58 -0.32,-1.15 -0.42,-1.5l0.01,0.03Zm0.46,-24.92c-0.02,-5.6 -0.55,-10.6 -3.07,-15.14c-2.58,-4.65 -6.64,-6.97 -11.94,-7.04c-5.15,-0.06 -9.18,2.15 -11.53,6.67c-4.8,9.24 -4.55,18.71 -0.28,28.06c4.35,9.54 17.01,9.77 22.79,1.58c3.11,-4.41 4.15,-9.36 4.04,-14.13l-0.01,-0Z" style="fill:#284659;fill-rule:nonzero;"/><path d="M339.742,128.628c-0.42,0.37 -0.9,0.68 -1.24,1.1c-6.15,7.69 -14.16,9.91 -23.61,8.24c-10.84,-1.91 -16.57,-9.06 -19.83,-18.88c-1.94,-5.86 -2.48,-11.91 -2.3,-17.99c0.26,-8.44 2.1,-16.51 7.25,-23.47c5.58,-7.55 13.15,-10.81 22.5,-10.26c6.94,0.41 12.35,3.29 16.09,9.2c0.27,0.42 0.77,0.69 1.5,1.33c0.12,-1.02 0.24,-1.64 0.25,-2.26c0.03,-1.64 0.03,-3.29 0.02,-4.93c0,-1.06 0.47,-1.55 1.55,-1.55c4.51,0.02 9.03,0.02 13.54,-0c1.1,-0 1.57,0.48 1.48,1.55c-0.02,0.3 0,0.61 0,0.91c0,21.74 0.07,43.49 -0.04,65.23c-0.03,6.12 -1.15,12.07 -4.33,17.49c-3.24,5.51 -8.04,9.04 -13.97,11.08c-7.06,2.43 -14.41,2.83 -21.67,1.69c-8.15,-1.28 -15.25,-4.88 -19.38,-12.49c-1.27,-2.33 -1.7,-5.13 -2.42,-7.74c-0.33,-1.2 0.22,-1.79 1.54,-1.78c4.76,0.04 9.52,-0.03 14.27,0.07c0.58,0.01 1.46,0.64 1.67,1.19c1.98,5.15 5.73,7.82 11.16,8.29c6.42,0.55 11.64,-1.42 14.43,-7.53c1.09,-2.38 1.7,-5.09 1.95,-7.71c0.33,-3.47 0.08,-7 0.08,-10.5c-0.17,-0.09 -0.33,-0.19 -0.5,-0.28l0.01,-0Zm-29.47,-26.24c0.18,2.42 0.2,4.88 0.59,7.27c0.3,1.83 1.04,3.6 1.65,5.37c1.88,5.42 6.92,9.09 12.48,8.98c6.13,-0.13 10.37,-3.36 12.81,-8.73c3.82,-8.39 3.28,-16.96 -0.2,-25.27c-2.23,-5.33 -6.59,-8.12 -12.5,-8.16c-5.75,-0.04 -9.67,2.9 -12.19,7.81c-2.04,3.97 -2.63,8.3 -2.63,12.73l-0.01,-0Z" style="fill:#284659;fill-rule:nonzero;"/><path d="M801.532,134.398c-2.57,1.74 -4.59,3.45 -6.89,4.61c-8.37,4.24 -17.09,4.78 -25.78,1.26c-4.82,-1.95 -8.13,-5.75 -9.71,-10.78c-1.86,-5.91 -1.87,-11.84 0.36,-17.69c1.88,-4.95 5.63,-7.99 10.41,-9.83c4.51,-1.74 9.28,-2.34 14.04,-3.01c4.2,-0.59 8.37,-1.51 12.46,-2.63c3,-0.82 4.42,-3.23 4.46,-6.37c0.09,-6.19 -2.89,-9.47 -9.09,-9.6c-2.57,-0.05 -5.22,0.22 -7.71,0.82c-3.55,0.86 -5.33,3.63 -6.12,7.03c-0.63,2.71 -0.72,2.86 -3.47,2.86l-12.44,-0c-2.16,-0 -2.35,-0.24 -2.04,-2.31c1.49,-9.9 6.88,-16.39 16.52,-19.51c5.69,-1.84 11.46,-1.99 17.32,-1.82c3.92,0.11 7.72,0.71 11.47,1.89c8.43,2.65 13.18,8.89 13.2,17.74c0.03,12.61 -0.09,25.22 0.06,37.82c0.05,4.23 0.7,8.46 1.13,12.69c0.09,0.88 0.45,1.73 0.75,2.79c-0.72,0.07 -1.37,0.19 -2.01,0.19c-4.51,0.02 -9.03,-0.04 -13.54,0.03c-1.69,0.03 -2.43,-0.6 -2.56,-2.3c-0.09,-1.22 -0.5,-2.42 -0.83,-3.9l0.01,0.02Zm-0.65,-22.51c0,-1.34 0.03,-2.68 0,-4.02c-0.03,-1.21 -0.32,-1.82 -1.8,-1.14c-1.52,0.69 -3.2,1.09 -4.85,1.44c-3.27,0.69 -6.59,1.14 -9.84,1.9c-2.81,0.66 -5.48,1.79 -7.22,4.28c-3.72,5.33 -1.76,13.25 5.11,14.82c6.99,1.6 13.93,-0.91 16.99,-6.96c1.64,-3.25 1.72,-6.78 1.62,-10.33l-0.01,0.01Z" style="fill:#284659;fill-rule:nonzero;"/><path d="M488.562,134.148c-1.58,1.24 -2.87,2.44 -4.34,3.37c-8.95,5.65 -18.51,6.56 -28.3,2.77c-4.9,-1.9 -8.12,-5.82 -9.75,-10.94c-1.85,-5.82 -1.82,-11.65 0.24,-17.33c1.84,-5.09 5.76,-8.31 10.81,-10.14c4.6,-1.67 9.4,-2.34 14.24,-2.96c3.9,-0.5 7.81,-1.27 11.55,-2.44c4.99,-1.56 5.72,-5.4 4.63,-9.81c-1.04,-4.2 -3.61,-5.97 -8.15,-6.25c-2.74,-0.17 -5.6,0.1 -8.27,0.73c-4.03,0.96 -5.8,4.18 -6.48,7.99c-0.25,1.39 -0.66,2 -2.16,1.97c-4.51,-0.08 -9.03,-0.07 -13.54,-0c-1.54,0.02 -2.01,-0.53 -1.89,-2.06c0.72,-9.36 6.73,-16.5 15.62,-19.57c7.47,-2.58 15.13,-2.41 22.77,-1.7c4.17,0.39 8.27,1.58 11.89,3.86c5.44,3.44 7.98,8.53 8,14.88c0.03,12.12 -0.08,24.24 0.06,36.36c0.05,4.61 0.62,9.21 0.96,13.81c0.02,0.3 0.08,0.61 0.16,0.9c0.534,2 -0.223,3 -2.27,3c-4.09,-0 -8.17,-0.05 -12.26,0.03c-1.42,0.03 -2.3,-0.25 -2.53,-1.82c-0.2,-1.43 -0.6,-2.82 -1,-4.63l0.01,-0.02Zm-0.59,-21.69l0,-4.84c0,-1.22 -0.53,-1.39 -1.65,-0.99c-1.82,0.65 -3.68,1.21 -5.56,1.62c-3.03,0.66 -6.18,0.88 -9.1,1.82c-2.42,0.78 -5.15,1.82 -6.77,3.62c-5.13,5.67 -2.52,13.54 4.82,15.53c6.25,1.69 13.38,-1 16.19,-6.25c1.82,-3.41 2.38,-7.12 2.09,-10.51l-0.02,-0Z" style="fill:#284659;fill-rule:nonzero;"/><path d="M936.282,118.978c-2.62,8.48 -6.75,15.69 -14.8,20.02c-5.36,2.88 -11.16,3.73 -17.15,3.37c-13.48,-0.81 -22.77,-7.51 -27.88,-19.98c-1.75,-4.26 -2.41,-8.73 -2.88,-13.3c-0.57,-5.47 -0.09,-10.83 1.29,-16.04c2.92,-11.02 8.95,-19.72 20.13,-23.69c10.37,-3.68 20.4,-2.93 29.37,3.98c5.04,3.88 8.31,9.15 10.39,15.12c2.15,6.14 3.09,12.47 2.93,18.98c-0.04,1.65 -0.54,2.21 -2.22,2.2c-13.9,-0.06 -27.81,-0.03 -41.71,-0.03c-2.73,-0 -2.76,-0 -2.57,2.74c0.33,4.84 1.77,9.22 5.68,12.38c4.16,3.37 9.04,3.85 14.01,2.62c4.34,-1.08 7.79,-3.61 9.84,-7.78c0.22,-0.45 0.89,-0.97 1.36,-0.98c4.51,-0.05 9.02,-0 13.53,0.03c0.16,-0 0.32,0.16 0.69,0.35l-0.01,0.01Zm-31.08,-21.72l10.79,-0c3.96,-0 4.16,-0.05 3.19,-3.88c-1.49,-5.93 -4.62,-10.98 -12.26,-11.52c-8.89,-0.62 -14.78,5.61 -15.78,13.36c-0.22,1.74 0.45,2.08 1.99,2.06c4.02,-0.07 8.05,-0.02 12.07,-0.02Z" style="fill:#284659;fill-rule:nonzero;"/><path d="M1017.58,69.398c0.91,-0.1 1.55,-0.23 2.19,-0.23c4.82,-0.02 9.64,0.02 14.46,-0.03c1.56,-0.02 2.29,0.44 2.76,2.12c1.9,6.77 4.07,13.47 6.08,20.22c2.3,7.73 4.53,15.48 6.82,23.21c0.26,0.89 0.75,1.71 1.13,2.57c0.19,-0 0.37,-0.01 0.56,-0.02c0.68,-2.22 1.37,-4.43 2.03,-6.65c1.49,-5.07 2.96,-10.14 4.42,-15.22c1.37,-4.78 2.71,-9.58 4.07,-14.36c0.99,-3.5 1.92,-7.01 3.04,-10.47c0.19,-0.6 1.22,-1.29 1.87,-1.31c4.88,-0.11 9.76,-0.05 14.64,-0.07c1.52,-0 1.79,0.82 1.39,2.02c-1.65,4.95 -3.33,9.88 -4.99,14.82c-1.7,5.06 -3.37,10.12 -5.06,15.18c-1.73,5.17 -3.49,10.33 -5.22,15.49c-1.65,4.94 -3.27,9.89 -4.93,14.84c-1.44,4.31 -2.85,8.63 -4.37,12.92c-1.25,3.54 -2.41,7.13 -3.99,10.53c-3.16,6.8 -8.73,10.28 -16.18,10.56c-4.13,0.16 -8.28,-0.05 -12.42,-0.07c-1.46,-0 -2.07,-0.72 -2.06,-2.16c0.03,-4.14 0.04,-8.28 0,-12.43c-0.02,-1.41 0.52,-1.78 1.89,-1.57c2.1,0.32 4.24,0.43 6.36,0.65c5.81,0.59 9.74,-4.78 8.82,-10.11c-0.68,-3.97 -2.11,-7.83 -3.35,-11.69c-1.97,-6.11 -4.05,-12.19 -6.12,-18.28c-2.26,-6.65 -4.58,-13.29 -6.85,-19.94c-1.44,-4.25 -2.81,-8.52 -4.24,-12.77c-0.85,-2.51 -1.76,-4.99 -2.73,-7.74l-0.02,-0.01Z" style="fill:#284659;fill-rule:nonzero;"/><path d="M867.972,126.168c0,4.49 0.05,8.93 -0.07,13.36c-0.01,0.52 -0.88,1.41 -1.42,1.46c-7.17,0.69 -14.4,1.33 -21.24,-1.62c-4.5,-1.94 -6.84,-5.71 -7.51,-10.48c-0.26,-1.86 -0.27,-3.77 -0.28,-5.65c-0.02,-12.79 0,-25.58 -0.01,-38.38c0,-2.67 -0.09,-2.75 -2.8,-2.76c-2.2,-0 -4.39,-0.04 -6.59,-0c-1.11,0.02 -1.5,-0.43 -1.49,-1.52c0.04,-3.29 0.05,-6.58 0,-9.87c-0.02,-1.22 0.55,-1.6 1.67,-1.58c2.13,0.03 4.27,0.02 6.41,-0c2.42,-0.01 2.79,-0.37 2.8,-2.73c0.01,-5.48 0,-10.96 0,-16.45c0,-2.35 0.12,-2.45 2.51,-2.45l12.63,-0c2.38,-0 2.41,0.03 2.41,2.5c0,5.6 0.04,11.21 -0.02,16.81c-0.02,1.71 0.55,2.42 2.33,2.36c2.99,-0.1 5.98,-0 8.97,-0.04c1.24,-0.02 1.75,0.42 1.73,1.7c-0.06,3.23 -0.06,6.46 0,9.68c0.02,1.2 -0.43,1.6 -1.61,1.58c-3.17,-0.05 -6.35,0.04 -9.52,-0.04c-1.46,-0.03 -1.9,0.53 -1.89,1.93c0.04,11.82 0,23.64 0.04,35.45c0.02,4.81 1.83,6.57 6.67,6.69c1.99,0.05 3.99,-0 6.28,-0l0,0.05Z" style="fill:#284659;fill-rule:nonzero;"/><path d="M672.642,104.768c0,-6.76 -0.05,-13.52 0.04,-20.28c0.02,-1.8 -0.44,-2.55 -2.35,-2.42c-2.12,0.15 -4.27,-0 -6.4,0.05c-1.2,0.03 -1.81,-0.33 -1.79,-1.64c0.05,-3.23 0.03,-6.45 0.01,-9.68c0,-1.16 0.52,-1.65 1.67,-1.64c2.13,0.03 4.27,-0 6.4,-0c2.24,-0.01 2.41,-0.17 2.42,-2.38c0.01,-5.66 0.06,-11.33 -0.03,-16.99c-0.03,-1.74 0.5,-2.35 2.28,-2.31c4.2,0.11 8.41,0.03 12.62,0.04c2.6,-0 2.71,0.1 2.72,2.64c0.01,5.42 0,10.84 0,16.26c0,2.44 0.3,2.72 2.75,2.74c2.81,0.01 5.61,0.03 8.42,-0c1.22,-0.02 1.79,0.46 1.78,1.72c-0.03,3.23 -0.03,6.45 0,9.68c0.01,1.21 -0.54,1.58 -1.68,1.57c-3.05,-0.04 -6.1,0.03 -9.15,-0.02c-1.57,-0.03 -2.15,0.6 -2.15,2.17c0.04,11.57 0,23.14 0.05,34.71c0,1.32 0.29,2.68 0.7,3.93c0.55,1.66 1.77,2.85 3.58,2.98c2.3,0.16 4.62,0.17 6.92,0.07c1.29,-0.06 1.74,0.33 1.73,1.61c-0.05,3.84 -0.05,7.67 0,11.51c0.01,1.27 -0.49,1.99 -1.75,2.07c-6.93,0.45 -13.9,1.13 -20.55,-1.65c-4.1,-1.71 -6.51,-4.87 -7.45,-9.23c-1.58,-7.36 -0.45,-14.8 -0.79,-22.2c-0.05,-1.09 0,-2.19 0,-3.29l0,-0.02Z" style="fill:#284659;fill-rule:nonzero;"/><path d="M408.342,104.878c0,-6.82 -0.06,-13.64 0.04,-20.46c0.03,-1.89 -0.61,-2.46 -2.42,-2.35c-2.19,0.13 -4.39,-0 -6.58,0.04c-1.1,0.02 -1.54,-0.45 -1.53,-1.52c0.02,-3.23 0.03,-6.45 0,-9.68c-0.01,-1.23 0.49,-1.78 1.74,-1.76c1.95,0.04 3.9,-0 5.85,-0c1.934,-0 2.904,-0.997 2.91,-2.99c0,-5.48 0.05,-10.96 -0.03,-16.44c-0.02,-1.61 0.41,-2.28 2.15,-2.24c4.39,0.11 8.78,0.11 13.17,-0c1.82,-0.04 2.33,0.69 2.31,2.37c-0.06,5.54 -0.03,11.08 -0.01,16.62c0,2.34 0.33,2.66 2.63,2.68c2.74,0.02 5.49,0.05 8.23,-0.01c1.44,-0.03 2.14,0.41 2.1,1.97c-0.07,3.1 -0.05,6.21 0,9.31c0.02,1.26 -0.49,1.72 -1.74,1.7c-3.05,-0.05 -6.1,0.02 -9.15,-0.02c-1.45,-0.02 -2.09,0.52 -2.08,2.04c0.03,11.63 0,23.26 0.05,34.89c0,1.32 0.3,2.68 0.72,3.93c0.55,1.68 1.85,2.79 3.63,2.93c2.24,0.17 4.5,0.17 6.74,0.07c1.34,-0.06 1.88,0.26 1.85,1.67c-0.06,3.77 -0.07,7.55 0,11.32c0.03,1.48 -0.62,2.17 -2,2.24c-6.74,0.32 -13.51,1.05 -20.02,-1.61c-4.22,-1.72 -6.9,-4.78 -7.66,-9.23c-0.54,-3.21 -0.76,-6.5 -0.85,-9.77c-0.13,-5.23 -0.04,-10.47 -0.04,-15.71l-0.01,0.01Z" style="fill:#284659;fill-rule:nonzero;"/><path d="M519.832,138.118l0,-93.54c0,-1.914 0.984,-2.87 2.95,-2.87c4.27,-0 8.54,0.04 12.81,-0.02c1.48,-0.02 2.03,0.47 2.03,2c-0.03,31.61 -0.04,63.21 0,94.82c0,1.66 -0.64,2.09 -2.15,2.08c-4.39,-0.05 -8.78,-0 -13.17,-0.02c-2.43,-0 -2.47,-0.05 -2.47,-2.45Z" style="fill:#284659;fill-rule:nonzero;"/><path d="M729.062,81.288c1.76,-2.52 2.97,-4.72 4.63,-6.51c4.83,-5.21 10.7,-8.09 18.04,-7.27c1.19,0.13 1.55,0.63 1.54,1.74c-0.03,4.93 -0.04,9.87 0,14.8c0.02,1.51 -0.57,2 -2,1.62c-3.8,-0.99 -7.51,-0.49 -11.08,0.94c-5.16,2.07 -8.16,6.17 -9.33,11.38c-0.86,3.82 -1.22,7.8 -1.3,11.73c-0.18,9.5 -0.1,19 -0.02,28.5c0.02,1.87 -0.6,2.43 -2.42,2.39c-4.39,-0.11 -8.78,-0.08 -13.17,-0.01c-1.58,0.02 -2.13,-0.52 -2.13,-2.12c0.04,-22.35 0.04,-44.7 0,-67.05c0,-1.65 0.58,-2.3 2.23,-2.28c4.15,0.06 8.29,0.06 12.44,-0c1.69,-0.02 2.25,0.69 2.19,2.32c-0.09,2.43 -0.04,4.87 0,7.31c0.01,0.68 0.19,1.36 0.37,2.52l0.01,-0.01Z" style="fill:#284659;fill-rule:nonzero;"/><path d="M389.352,140.388c-0.61,0.06 -1.14,0.17 -1.67,0.17c-4.64,0.01 -9.27,-0.03 -13.91,0.03c-1.42,0.02 -1.91,-0.46 -1.91,-1.9c0.03,-22.48 0.03,-44.96 0,-67.44c0,-1.59 0.55,-2.15 2.13,-2.12c4.45,0.07 8.91,0.07 13.36,-0c1.54,-0.02 2.14,0.41 2.13,2.06c-0.05,22.48 -0.03,44.96 -0.04,67.44c0,0.54 -0.06,1.08 -0.1,1.76l0.01,-0Z" style="fill:#284659;fill-rule:nonzero;"/><path d="M280.312,105.068c0,11.08 -0.03,22.16 0.03,33.23c0.01,1.73 -0.47,2.35 -2.26,2.3c-4.26,-0.11 -8.53,-0.08 -12.8,-0.01c-1.6,0.03 -2.27,-0.43 -2.26,-2.16c0.05,-22.34 0.04,-44.68 0,-67.01c0,-1.65 0.57,-2.29 2.23,-2.27c4.27,0.06 8.54,0.08 12.8,-0.01c1.78,-0.04 2.29,0.62 2.28,2.34c-0.06,11.2 -0.03,22.4 -0.03,33.6l0.01,-0.01Z" style="fill:#284659;fill-rule:nonzero;"/><path d="M380.812,57.748c-2.32,-0 -4.64,-0.04 -6.95,0.02c-1.38,0.04 -2.01,-0.46 -1.99,-1.9c0.04,-4.14 0.04,-8.28 0,-12.42c-0.01,-1.22 0.39,-1.76 1.69,-1.75c4.76,0.05 9.51,0.04 14.27,-0c1.13,-0 1.66,0.3 1.64,1.54c-0.05,4.26 -0.05,8.53 0,12.79c0.01,1.24 -0.43,1.77 -1.7,1.74c-2.32,-0.05 -4.63,-0.02 -6.95,-0.01l-0.01,-0.01Z" style="fill:#284659;fill-rule:nonzero;"/><path d="M271.732,57.748c-2.2,-0 -4.39,-0.04 -6.59,0.01c-1.45,0.04 -2.12,-0.51 -2.11,-2.02c0.05,-4.08 0.05,-8.16 0,-12.24c-0.02,-1.36 0.57,-1.81 1.87,-1.8c4.57,0.04 9.15,0.05 13.72,-0c1.3,-0.01 1.7,0.54 1.69,1.75c-0.04,4.14 -0.04,8.28 0,12.43c0.02,1.44 -0.62,1.93 -2,1.89c-2.19,-0.06 -4.39,-0.02 -6.59,-0.02l0.01,-0Z" style="fill:#284659;fill-rule:nonzero;"/><path d="M17.062,100.068c-0.65,2.56 -1.17,4.72 -1.74,6.86c-0.44,1.64 -0.96,3.26 -1.39,4.9c-0.3,1.15 -0.05,1.92 1.35,2.25c3.37,0.78 6.71,1.72 10.05,2.61c0.39,0.1 0.76,0.27 1.62,0.58c-1.25,0.8 -2.21,1.34 -3.07,1.99c-2.23,1.7 -4.42,2.3 -7.24,1.08c-2.54,-1.1 -5.37,-1.52 -8.06,-2.27c-1.86,-0.52 -1.97,-0.93 -1.42,-2.75c0.88,-2.9 1.67,-5.82 2.37,-8.77c0.43,-1.83 1.17,-3.24 3.01,-4.02c1.42,-0.61 2.73,-1.47 4.51,-2.45l0.01,-0.01Z" style="fill:#284659;fill-rule:nonzero;"/><path d="M9.702,57.708c-2.03,-1.27 -4.2,-2.37 -6.02,-3.88c-0.79,-0.66 -0.92,-2.17 -1.25,-3.32c-0.78,-2.73 -1.43,-5.51 -2.29,-8.21c-0.44,-1.4 0.18,-1.95 1.3,-2.24c3.69,-0.97 7.38,-1.96 11.12,-2.75c0.82,-0.17 1.88,0.35 2.71,0.78c1.47,0.75 2.85,1.68 4.26,2.53c-0.04,0.16 -0.09,0.32 -0.13,0.48c-2.77,0.76 -5.52,1.6 -8.31,2.27c-5.82,1.39 -4.43,0.76 -3.3,5.7c0.63,2.75 1.52,5.44 2.3,8.16c-0.14,0.16 -0.27,0.33 -0.41,0.49l0.02,-0.01Z" style="fill:#284659;fill-rule:nonzero;"/><path d="M123.912,60.558c1.08,-3.65 2.14,-7.3 3.24,-10.94c0.48,-1.59 -0.31,-2.2 -1.71,-2.56c-3.3,-0.86 -6.57,-1.79 -9.85,-2.7c-0.23,-0.06 -0.43,-0.2 -1.1,-0.53c2.26,-1.27 4.19,-2.47 6.23,-3.43c0.58,-0.27 1.52,0.15 2.27,0.35c3.47,0.92 6.94,1.84 10.37,2.87c0.38,0.11 0.87,1.03 0.76,1.44c-0.93,3.52 -1.89,7.03 -3.05,10.48c-0.33,0.97 -1.22,1.87 -2.07,2.5c-1.48,1.1 -3.14,1.96 -4.72,2.92c-0.12,-0.13 -0.24,-0.27 -0.36,-0.4l-0.01,-0Z" style="fill:#284659;fill-rule:nonzero;"/><path d="M80.152,17.108c-0.61,-0.72 -1.19,-1.47 -1.85,-2.14c-2.04,-2.09 -4.13,-4.12 -6.16,-6.22c-0.99,-1.02 -1.68,-0.91 -2.71,0.09c-2.74,2.65 -5.64,5.13 -8.23,7.46c0,-1.8 -0.41,-4.23 0.14,-6.42c0.38,-1.53 2.01,-2.81 3.2,-4.08c1.67,-1.77 3.5,-3.38 5.18,-5.14c0.76,-0.8 1.33,-0.91 2.12,-0.11c2.74,2.78 5.51,5.53 8.24,8.31c0.28,0.29 0.58,0.71 0.59,1.08c0.05,2.29 0.03,4.57 0.03,6.86c-0.19,0.1 -0.37,0.2 -0.56,0.3l0.01,0.01Z" style="fill:#284659;fill-rule:nonzero;"/><path d="M69.031,124.581l-38.318,-22.037l-0.607,-45.128l39.933,-22.842l38.225,22.598l0.21,44.472l-6.327,3.887l-7.203,-12.378l-0.12,-27.726l-25.571,-15.255l-25.576,14.35l0.451,28.574l24.414,14.998l7.538,11.22l-7.049,5.267Z" style="fill:#f93;"/><path d="M78.259,139.389l38.655,-23.106l5.439,8.548l-39.158,23.249l-4.936,-8.691Z" style="fill:#f93;"/><path d="M90.308,148.229l29.973,-17.297l5.218,8.399l-30.364,17.403l-4.827,-8.505Z" style="fill:#f93;"/><path d="M103.587,157.185l17.974,-10.297l5.218,8.399l-18.364,10.404l-4.828,-8.506Z" style="fill:#f93;"/></svg>